<svg width="130" height="26" viewBox="0 0 130 26" fill="none" xmlns="http://www.w3.org/2000/svg">
<g clip-path="url(#clip0_1075_2827)">
<path d="M7.42435 5.5317H1.69503C0.401316 5.5317 0 4.38096 0 2.97956C0 1.57815 0.401316 0.433105 1.69503 0.433105H18.3021C19.6011 0.433105 19.9972 1.58385 19.9972 2.98525C19.9972 4.38665 19.5958 5.5374 18.3021 5.5374H12.5411V23.8867C12.5411 25.4305 11.4111 25.9318 9.9801 25.9318C8.54909 25.9318 7.41907 25.4305 7.41907 23.8867V5.5317H7.42435Z" fill="#005CFF"/>
<path d="M23.7988 2.08518C23.7988 0.541354 24.9288 0.0400391 26.3599 0.0400391C27.7909 0.0400391 28.9209 0.541354 28.9209 2.08518V23.881C28.9209 25.4248 27.7909 25.9261 26.3599 25.9261C24.9288 25.9261 23.7988 25.4248 23.7988 23.881V2.08518Z" fill="#005CFF"/>
<path d="M34.7451 2.80297C34.7451 1.25915 35.5108 0.0400391 37.2745 0.0400391C38.9378 0.0400391 39.4711 0.792011 40.1048 1.83452L47.0592 13.5414L54.3832 1.58386C54.9165 0.649592 55.6136 0.0742196 57.2135 0.0742196C59.3099 0.0742196 59.7112 1.29333 59.7112 2.83715V23.881C59.7112 25.4248 58.5812 25.9261 57.1502 25.9261C55.7192 25.9261 54.6208 25.3849 54.6208 23.881V10.8468L48.4638 20.0755C47.7298 21.2263 46.2671 21.2605 45.5331 20.0755L39.7774 10.955V23.955C39.7774 25.4647 38.6474 25.9318 37.2481 25.9318C35.8487 25.9318 34.7504 25.4647 34.7504 23.955V2.80297H34.7451Z" fill="#005CFF"/>
<path d="M63.635 3.19603C63.635 1.65221 64.765 0.433105 66.196 0.433105H74.4494C78.9431 0.433105 82.1378 2.44406 82.1378 6.9331V7.00716C82.1378 9.95239 80.8388 11.781 79.0751 12.4305C81.4408 12.8236 83.4368 14.8744 83.4368 18.3209C83.4368 23.2771 79.9728 25.5729 74.7187 25.5729H66.196C64.7333 25.5729 63.635 24.7127 63.635 22.81V3.19603ZM73.3564 10.5961C75.6217 10.5961 77.0527 9.80427 77.0527 7.94143V7.86737C77.0527 6.21531 75.854 5.28105 73.689 5.28105H68.6303V10.5961H73.3564ZM74.7187 20.7193C76.984 20.7193 78.3464 19.859 78.3464 17.9905V17.9165C78.3464 16.2302 77.1794 15.1877 74.5497 15.1877H68.6251V20.7193H74.7187Z" fill="#005CFF"/>
<path d="M87.6611 2.08518C87.6611 0.541354 88.7912 0.0400391 90.2222 0.0400391C91.6532 0.0400391 92.7832 0.541354 92.7832 2.08518V20.5427H103.07C104.369 20.5427 104.733 21.6535 104.733 23.0549C104.733 24.4563 104.369 25.5672 103.07 25.5672H90.2222C88.7912 25.5672 87.6611 24.3481 87.6611 22.8043V2.08518Z" fill="#005CFF"/>
<path d="M105.235 13C105.235 5.85627 110.462 0 117.649 0C124.836 0 130 5.78221 130 13C130 20.2178 124.772 26 117.586 26C110.399 26 105.235 20.2178 105.235 13ZM124.64 13C124.64 8.69325 121.71 5.0986 117.586 5.0986C113.462 5.0986 110.594 8.61919 110.594 13C110.594 17.3808 113.525 20.9014 117.649 20.9014C121.773 20.9014 124.64 17.3808 124.64 13Z" fill="#005CFF"/>
</g>
<defs>
<clipPath id="clip0_1075_2827">
<rect width="130" height="26" fill="white"/>
</clipPath>
</defs>
</svg>
